<?xml version="1.0" standalone="no"?>
<!DOCTYPE svg PUBLIC "-//W3C//DTD SVG 20010904//EN"
 "http://www.w3.org/TR/2001/REC-SVG-20010904/DTD/svg10.dtd">
<svg version="1.0" xmlns="http://www.w3.org/2000/svg"
 width="1378.000000pt" height="2142.000000pt" viewBox="0 0 1378.000000 2142.000000"
 preserveAspectRatio="xMidYMid meet">

<g transform="translate(0.000000,2142.000000) scale(0.100000,-0.100000)"
fill="#000000" stroke="none">
<path d="M6785 21387 c-56 -32 -77 -68 -115 -203 -136 -483 -342 -943 -599
-1334 -193 -295 -403 -545 -808 -965 -349 -362 -403 -421 -513 -567 -244 -321
-340 -583 -340 -923 0 -347 86 -665 284 -1050 126 -246 266 -459 467 -712 300
-377 785 -847 1246 -1207 150 -118 152 -119 130 -136 -166 -126 -649 -447
-836 -554 -686 -394 -1264 -523 -1769 -396 -312 79 -575 228 -821 465 -265
255 -430 543 -526 920 -56 222 -69 338 -70 625 0 309 23 518 91 815 26 111 75
297 80 304 2 2 45 -40 96 -94 130 -137 252 -237 558 -455 333 -237 455 -335
600 -480 249 -248 427 -516 553 -830 51 -127 180 -508 263 -774 l37 -118 37 6
c60 9 305 92 304 102 -4 26 -175 561 -224 699 -79 220 -120 318 -200 472 -134
260 -298 482 -515 698 -160 160 -296 270 -620 500 -468 333 -597 460 -752 740
-42 74 -57 93 -93 112 -54 29 -111 29 -167 2 -53 -26 -76 -63 -137 -222 -201
-519 -309 -1169 -276 -1667 41 -641 250 -1142 645 -1548 206 -213 395 -352
647 -477 440 -218 919 -262 1440 -131 l127 32 15 -41 c8 -22 40 -112 71 -200
160 -452 358 -898 548 -1235 231 -408 443 -688 742 -978 l166 -161 -153 -91
c-202 -120 -552 -293 -758 -374 -361 -142 -711 -231 -1090 -278 -161 -20 -662
-16 -820 6 -477 66 -886 197 -1320 422 -912 473 -1552 1419 -1890 2798 -27
109 -52 218 -56 243 l-6 44 86 -56 c121 -79 325 -175 496 -233 183 -62 382
-113 770 -196 436 -94 624 -147 896 -256 823 -329 1501 -941 2014 -1820 74
-127 260 -490 260 -508 0 -9 246 58 322 87 l27 10 -31 73 c-18 40 -73 154
-123 253 -374 738 -894 1359 -1495 1785 -311 221 -698 415 -1084 545 -204 68
-357 108 -721 185 -633 134 -905 225 -1135 376 -155 101 -315 285 -372 425
-45 113 -99 159 -187 159 -74 0 -131 -34 -161 -96 -20 -41 -22 -55 -16 -137
11 -147 53 -437 91 -637 260 -1337 821 -2384 1617 -3021 383 -306 953 -578
1494 -713 316 -79 528 -106 872 -113 379 -8 672 21 1012 101 80 19 146 33 148
31 12 -11 117 -471 141 -617 164 -985 35 -1773 -380 -2339 -83 -114 -313 -339
-429 -421 -260 -184 -587 -328 -881 -387 -505 -103 -975 15 -1370 345 -230
192 -456 493 -614 819 -117 240 -174 398 -290 800 -46 160 -113 387 -150 505
-69 223 -337 1033 -381 1147 -28 75 -37 78 101 -38 231 -195 560 -423 845
-585 335 -190 695 -353 1356 -613 741 -292 1004 -412 1339 -609 119 -70 327
-207 387 -254 l38 -30 19 44 c22 52 101 292 101 308 0 14 -251 178 -419 275
-336 192 -648 333 -1346 606 -926 364 -1387 601 -1870 964 -82 62 -202 157
-265 211 -120 103 -421 399 -575 566 -71 76 -99 99 -132 109 -74 21 -153 -10
-200 -80 -41 -61 -33 -112 58 -363 307 -848 569 -1641 752 -2278 47 -162 106
-353 132 -423 379 -1047 1038 -1685 1861 -1803 143 -20 415 -20 560 1 522 74
1077 349 1443 714 158 158 301 352 408 551 l48 90 70 -77 c437 -479 717 -937
890 -1455 58 -176 96 -325 154 -611 l47 -236 -33 -143 c-98 -421 -245 -745
-464 -1018 -218 -273 -514 -456 -834 -515 -122 -23 -346 -16 -460 14 -106 27
-266 108 -336 168 -116 100 -171 184 -225 347 -139 422 -308 708 -577 983 -66
68 -118 125 -115 128 13 14 261 47 388 52 386 15 749 -90 1049 -305 114 -81
288 -246 378 -356 88 -110 229 -324 287 -435 26 -51 53 -91 61 -91 39 0 245
235 245 279 0 20 -165 280 -247 389 -103 138 -294 337 -413 432 -514 409
-1162 544 -1845 383 -122 -28 -311 -91 -393 -130 -138 -65 -148 -237 -19 -318
244 -153 389 -279 523 -457 145 -193 230 -361 330 -650 30 -90 71 -190 89
-224 157 -281 433 -477 785 -556 91 -20 132 -23 300 -23 215 0 298 12 470 67
95 30 279 114 357 162 48 30 42 40 72 -99 134 -608 83 -1369 -134 -2012 -50
-147 -53 -179 -26 -240 56 -121 240 -133 310 -20 28 46 102 268 144 432 185
725 188 1498 9 2115 l-27 95 83 95 c151 171 340 482 423 698 13 34 26 62 29
62 3 0 16 -28 29 -63 84 -217 270 -523 423 -697 l83 -95 -27 -95 c-179 -617
-176 -1390 9 -2115 42 -164 116 -386 144 -432 70 -113 249 -102 308 19 30 62
27 91 -24 241 -153 453 -229 1001 -204 1465 12 223 48 480 90 635 l10 38 42
-27 c78 -48 262 -132 357 -162 172 -55 255 -67 470 -67 168 0 209 3 300 23
352 79 628 275 785 556 18 34 59 134 89 224 129 373 257 592 480 820 113 116
204 188 316 251 94 53 115 73 136 127 34 89 -7 184 -98 227 -144 68 -401 140
-618 174 -172 26 -523 24 -685 -6 -320 -57 -585 -168 -855 -359 -129 -91 -382
-344 -493 -494 -83 -110 -247 -370 -247 -389 0 -44 206 -279 245 -279 8 0 34
39 60 90 64 124 206 337 296 445 378 452 861 674 1419 652 127 -5 375 -38 388
-52 3 -3 -49 -60 -115 -128 -269 -275 -438 -561 -577 -983 -54 -163 -109 -247
-225 -347 -70 -60 -230 -141 -336 -168 -114 -30 -338 -37 -460 -14 -320 59
-616 242 -834 515 -133 166 -243 358 -329 575 -78 196 -118 345 -188 691 -101
505 -174 783 -275 1039 -207 529 -532 1022 -983 1492 l-107 111 30 114 c39
145 65 279 88 448 26 191 26 750 0 960 -38 307 -93 589 -168 859 -22 79 -38
145 -37 146 2 2 62 25 133 53 342 131 742 335 1072 548 l83 54 83 -54 c119
-77 352 -212 497 -288 119 -63 351 -173 379 -180 8 -2 32 48 66 137 29 77 58
152 64 168 10 27 10 28 -62 59 -211 92 -682 353 -887 491 -104 71 -273 210
-384 317 -307 297 -545 635 -789 1120 -166 331 -302 656 -436 1043 l-51 147
43 17 c88 35 378 184 522 268 188 110 458 288 730 480 116 82 217 149 225 149
8 0 110 -67 225 -149 349 -247 647 -438 889 -569 107 -58 95 -67 165 113 70
179 68 168 31 189 -242 132 -509 303 -848 540 -108 76 -235 165 -282 197 -139
96 -475 350 -614 464 -838 688 -1421 1460 -1606 2128 -43 158 -60 270 -60 409
0 284 92 499 340 796 44 53 209 231 367 395 421 437 537 568 724 818 250 336
470 726 615 1092 27 68 51 123 54 123 3 0 27 -55 54 -123 145 -366 365 -756
615 -1092 187 -250 303 -381 724 -818 312 -325 416 -444 509 -581 143 -215
198 -383 198 -610 0 -732 -671 -1742 -1707 -2570 -56 -44 -102 -84 -102 -88
-1 -9 160 -135 237 -186 l52 -35 53 44 c413 343 802 732 1074 1071 204 255
346 471 472 718 196 383 281 700 281 1045 0 340 -96 602 -340 923 -110 146
-164 205 -513 567 -488 506 -723 801 -947 1190 -84 146 -217 420 -279 575 -47
117 -154 437 -200 596 -24 83 -48 117 -102 144 -51 27 -114 25 -164 -3z"/>
<path d="M11010 17047 c-36 -19 -51 -38 -93 -112 -155 -280 -284 -407 -752
-740 -324 -230 -460 -340 -620 -500 -216 -215 -380 -437 -516 -698 -123 -238
-196 -440 -423 -1162 -294 -938 -451 -1358 -677 -1817 -218 -440 -453 -794
-703 -1055 l-100 -105 29 -25 c17 -13 84 -60 149 -104 l120 -80 34 33 c104 99
303 350 439 553 297 445 527 937 807 1725 l26 76 128 -32 c416 -104 832 -95
1193 26 129 43 374 164 494 245 277 186 535 449 695 710 240 391 353 825 353
1360 0 334 -36 628 -119 963 -65 265 -171 579 -229 679 -46 78 -151 105 -235
60z m74 -682 c145 -523 183 -1052 105 -1485 -77 -434 -262 -789 -560 -1075
-277 -266 -582 -425 -944 -492 -111 -20 -383 -23 -510 -5 -91 13 -301 59 -321
71 -18 10 274 929 383 1206 129 328 309 602 563 855 145 145 267 243 600 480
306 219 430 319 555 452 50 53 93 93 97 90 3 -4 18 -47 32 -97z"/>
<path d="M13475 14001 c-47 -29 -71 -61 -99 -129 -60 -151 -217 -332 -376
-436 -230 -151 -502 -242 -1135 -376 -364 -77 -517 -117 -721 -185 -487 -164
-907 -394 -1314 -719 -154 -124 -463 -430 -596 -591 -699 -847 -1143 -1896
-1281 -3025 -22 -182 -25 -770 -5 -920 26 -193 35 -240 43 -240 4 0 36 25 71
56 35 30 105 83 156 117 l93 62 -8 130 c-30 489 17 973 142 1472 30 118 56
217 57 218 2 2 48 -8 103 -21 138 -34 333 -69 500 -91 175 -22 728 -26 895 -5
550 68 1043 226 1545 494 499 267 908 650 1260 1178 225 339 402 694 559 1127
179 492 323 1129 368 1629 11 127 11 131 -11 177 -31 63 -87 97 -162 97 -35 0
-64 -7 -84 -19z m-225 -977 c-124 -557 -330 -1118 -565 -1541 -353 -636 -799
-1088 -1355 -1377 -437 -226 -856 -360 -1326 -423 -96 -13 -203 -17 -419 -17
-351 -1 -500 14 -823 86 -134 29 -142 32 -136 52 19 61 145 350 209 481 252
514 562 954 934 1325 487 487 1046 808 1726 995 72 19 267 65 435 101 387 83
587 134 770 196 160 54 409 172 510 241 41 28 66 40 68 32 2 -7 -11 -75 -28
-151z"/>
<path d="M13255 10231 c-27 -12 -78 -60 -156 -147 -395 -438 -848 -807 -1339
-1089 -328 -189 -703 -359 -1375 -623 -473 -186 -684 -276 -941 -401 -427
-208 -813 -456 -1101 -708 -539 -470 -934 -961 -1205 -1498 l-72 -143 16 -49
c9 -26 41 -118 70 -203 30 -85 62 -184 72 -220 l17 -64 53 140 c186 494 451
912 863 1362 l58 63 48 -90 c106 -198 250 -393 407 -551 367 -366 921 -641
1444 -715 145 -21 417 -21 560 -1 823 118 1482 756 1861 1803 26 70 85 261
132 423 183 639 444 1427 752 2278 61 167 81 235 81 273 0 78 -37 132 -112
164 -48 20 -84 19 -133 -4z m-462 -1123 c-174 -504 -335 -1010 -468 -1473
-116 -403 -174 -562 -290 -800 -240 -492 -580 -862 -960 -1045 -447 -215 -936
-207 -1471 25 -251 108 -460 245 -641 419 -185 177 -302 336 -414 561 l-60
120 38 33 c343 297 712 533 1161 742 220 102 398 177 865 361 493 194 714 288
982 418 470 229 866 483 1226 786 63 52 114 95 115 95 0 0 -37 -109 -83 -242z"/>
</g>
</svg>
