<?xml version="1.0" standalone="no"?>
<!DOCTYPE svg PUBLIC "-//W3C//DTD SVG 20010904//EN"
 "http://www.w3.org/TR/2001/REC-SVG-20010904/DTD/svg10.dtd">
<svg version="1.0" xmlns="http://www.w3.org/2000/svg"
 width="2251.000000pt" height="2251.000000pt" viewBox="0 0 2251.000000 2251.000000"
 preserveAspectRatio="xMidYMid meet">

<g transform="translate(0.000000,2251.000000) scale(0.100000,-0.100000)"
fill="#000000" stroke="none">
<path d="M10 11255 l0 -11245 11245 0 11245 0 0 11245 0 11245 -11245 0
-11245 0 0 -11245z m11308 8531 c50 -26 70 -59 102 -171 174 -601 418 -1049
820 -1509 59 -66 207 -224 329 -351 342 -352 451 -490 547 -690 64 -132 90
-224 105 -366 27 -244 -40 -564 -180 -862 -216 -462 -646 -979 -1209 -1455
l-113 -95 -47 33 c-73 52 -191 144 -191 150 0 3 58 51 128 108 672 541 1147
1186 1288 1750 24 93 27 127 28 262 0 149 -2 158 -33 249 -68 195 -174 337
-532 706 -353 364 -525 568 -697 825 -135 203 -269 456 -368 698 l-38 93 -47
-113 c-216 -520 -482 -910 -955 -1398 -267 -275 -357 -372 -423 -453 -197
-240 -271 -454 -244 -699 39 -355 236 -763 569 -1178 137 -171 434 -475 628
-642 355 -307 1210 -908 1496 -1054 27 -13 49 -26 49 -27 0 -2 -11 -36 -24
-75 -35 -103 -77 -192 -90 -192 -16 0 -209 109 -351 197 -131 82 -268 175
-471 320 -72 51 -134 93 -137 93 -3 0 -99 -66 -214 -147 -351 -249 -598 -399
-853 -521 -74 -35 -136 -65 -138 -67 -5 -4 107 -313 180 -495 80 -201 226
-506 318 -665 72 -127 205 -325 287 -428 89 -112 287 -310 401 -400 139 -111
464 -307 703 -425 l196 -97 -50 -133 c-34 -89 -55 -132 -65 -132 -41 0 -470
226 -679 358 -46 29 -85 52 -88 52 -2 0 -42 -24 -87 -53 -130 -84 -279 -168
-453 -254 -157 -78 -403 -185 -457 -198 -16 -4 -28 -8 -28 -9 0 0 14 -48 30
-106 118 -410 177 -905 152 -1272 -13 -190 -48 -414 -85 -549 l-24 -86 119
-129 c352 -378 593 -751 753 -1164 83 -213 130 -391 225 -855 82 -399 169
-633 319 -858 170 -253 390 -424 648 -504 80 -24 103 -27 253 -27 160 -1 168
0 255 31 126 44 179 76 261 157 83 83 101 114 161 290 54 159 140 340 220 461
72 109 198 261 264 318 27 23 49 45 49 48 0 4 -51 15 -112 24 -147 23 -370 24
-498 1 -435 -78 -788 -360 -1054 -841 l-53 -95 -39 29 c-49 35 -122 117 -149
166 l-19 37 24 46 c64 122 190 297 308 429 228 255 559 444 900 514 140 29
410 36 569 15 221 -29 506 -117 566 -174 15 -14 32 -44 38 -65 21 -79 -12
-133 -116 -192 -270 -150 -499 -457 -629 -841 -51 -151 -72 -196 -131 -280
-175 -247 -535 -403 -872 -380 -195 13 -354 59 -528 150 l-105 54 -9 -36 c-15
-59 -39 -190 -53 -287 -20 -139 -17 -600 5 -750 35 -241 84 -456 147 -639 16
-50 30 -103 30 -119 0 -40 -36 -100 -72 -121 -60 -36 -158 -16 -194 39 -23 35
-87 229 -123 370 -78 313 -105 532 -105 860 -1 320 28 553 99 798 l26 87 -64
73 c-125 144 -238 324 -316 506 l-45 102 -21 -53 c-77 -189 -226 -433 -337
-552 l-64 -69 38 -147 c69 -271 82 -393 82 -740 0 -237 -4 -333 -17 -430 -52
-367 -163 -770 -228 -824 -65 -55 -146 -51 -205 8 -52 52 -52 85 -5 228 171
519 212 1113 110 1587 -12 53 -23 99 -25 103 -3 4 -31 -9 -63 -28 -141 -84
-333 -146 -515 -166 -343 -37 -708 101 -898 340 -74 94 -108 162 -164 326 -92
269 -204 457 -378 632 -99 100 -187 167 -295 226 -67 37 -92 138 -51 205 38
62 249 141 510 189 121 22 387 30 518 14 549 -64 1017 -399 1330 -950 l31 -56
-28 -49 c-31 -54 -97 -127 -148 -163 l-32 -22 -57 102 c-272 484 -616 756
-1058 835 -120 21 -358 21 -491 -1 -54 -9 -101 -19 -104 -21 -2 -3 37 -47 86
-98 205 -212 350 -456 448 -755 46 -139 88 -211 167 -285 68 -63 184 -127 283
-153 94 -25 285 -30 384 -10 356 72 646 315 841 703 83 166 136 320 183 531
l23 102 -42 203 c-51 249 -64 300 -116 457 -130 400 -361 786 -675 1129 l-90
98 -24 -46 c-240 -454 -639 -782 -1164 -955 -847 -280 -1630 81 -2089 964
-119 231 -181 396 -287 765 -130 451 -326 1048 -545 1657 -70 194 -114 332
-114 355 0 72 68 143 136 143 63 0 91 -20 218 -160 445 -488 959 -845 1626
-1130 80 -34 318 -131 530 -215 661 -263 907 -382 1236 -597 l122 -79 -19 -62
c-26 -86 -70 -210 -79 -220 -4 -5 -52 23 -106 62 -141 99 -294 189 -484 285
-215 109 -327 157 -790 341 -212 84 -455 183 -540 220 -496 214 -905 459
-1245 745 -54 45 -95 76 -92 68 35 -88 333 -1003 387 -1188 142 -488 185 -612
290 -820 204 -406 497 -707 817 -839 210 -86 466 -113 702 -72 297 51 607 194
842 389 330 274 527 668 591 1187 18 149 15 530 -6 710 -27 232 -73 467 -132
671 l-15 51 -52 -14 c-394 -103 -843 -127 -1257 -67 -536 78 -1128 331 -1525
651 -117 95 -332 312 -428 433 -440 552 -763 1363 -886 2225 -32 221 -37 315
-18 352 29 56 72 83 130 83 78 0 111 -25 151 -114 46 -101 101 -179 177 -252
80 -75 132 -111 245 -167 170 -85 349 -139 759 -226 425 -91 639 -156 905
-273 668 -294 1192 -779 1623 -1498 90 -150 261 -495 253 -509 -3 -4 -64 -25
-136 -46 -97 -29 -129 -42 -126 -52 3 -8 1 -11 -4 -8 -6 3 -10 11 -10 16 0 22
-156 322 -241 464 -420 703 -969 1179 -1651 1434 -176 66 -330 108 -647 176
-538 117 -787 201 -1001 339 -51 33 -70 42 -66 29 3 -10 17 -70 31 -133 130
-589 377 -1164 669 -1558 250 -338 513 -567 856 -746 858 -447 1760 -471 2685
-73 163 70 563 281 598 316 4 4 -66 82 -156 172 -429 431 -750 1012 -1051
1905 -3 7 -33 3 -93 -12 -514 -129 -980 -50 -1388 234 -663 461 -928 1204
-769 2152 52 307 189 750 254 820 32 35 94 53 137 41 53 -15 80 -40 113 -104
55 -103 109 -178 194 -266 95 -98 174 -161 435 -346 308 -219 472 -364 627
-555 229 -283 335 -507 519 -1090 52 -163 71 -236 63 -241 -27 -17 -261 -80
-268 -72 -4 4 -38 105 -76 223 -173 552 -274 762 -486 1015 -142 171 -269 279
-591 509 -251 178 -340 250 -444 359 l-82 85 -10 -31 c-6 -18 -21 -77 -35
-132 -146 -594 -122 -1112 70 -1524 71 -151 164 -282 293 -411 212 -212 441
-342 711 -401 88 -20 133 -24 275 -23 204 0 325 21 545 93 305 101 607 268
1074 594 l159 112 -34 26 c-737 580 -1209 1105 -1469 1634 -89 180 -136 308
-176 481 -26 109 -28 136 -28 314 -1 215 10 279 75 431 90 212 197 351 584
754 385 403 550 603 717 875 179 291 323 624 418 963 19 66 42 130 53 144 39
49 121 67 175 39z m3382 -3471 c42 -22 57 -46 105 -169 85 -220 158 -502 200
-776 22 -142 31 -524 16 -671 -46 -439 -217 -826 -494 -1116 -473 -495 -1064
-666 -1713 -495 l-70 19 -48 -136 c-177 -505 -394 -963 -613 -1294 -124 -188
-353 -467 -383 -467 -15 0 -142 82 -198 127 l-42 34 88 97 c364 403 637 917
907 1713 42 123 133 404 202 624 224 714 306 902 513 1180 173 231 334 380
685 630 402 286 506 386 616 589 21 40 49 82 63 95 43 41 105 47 166 16z
m1977 -2435 c55 -33 67 -69 60 -190 -11 -203 -85 -611 -162 -895 -204 -751
-536 -1367 -970 -1800 -209 -209 -415 -358 -685 -495 -745 -377 -1499 -472
-2261 -287 l-97 24 -30 -116 c-100 -375 -137 -688 -130 -1083 l5 -258 -51 -32
c-28 -18 -86 -62 -129 -96 -43 -35 -80 -62 -82 -60 -2 2 -11 50 -20 108 -23
141 -31 547 -16 733 45 530 222 1141 480 1657 274 547 636 1008 1051 1339 203
163 381 274 625 392 298 144 518 215 959 309 153 33 323 72 379 86 455 115
710 282 837 549 37 77 67 116 100 128 35 13 106 6 137 -13z m-179 -3019 c43
-30 68 -99 54 -148 -5 -21 -62 -182 -125 -358 -224 -624 -395 -1148 -541
-1653 -41 -141 -93 -304 -114 -362 -234 -624 -579 -1051 -1027 -1270 -468
-229 -984 -208 -1525 61 -241 120 -387 226 -556 401 -123 127 -260 319 -315
441 -7 15 -16 27 -20 27 -11 0 -145 -151 -247 -278 -219 -274 -408 -611 -502
-895 -12 -38 -24 -67 -26 -64 -2 2 -18 50 -35 108 -17 57 -49 152 -71 211
l-40 107 52 107 c250 508 716 1046 1220 1406 239 172 591 364 916 502 72 30
297 121 500 202 552 219 786 325 1054 479 397 228 755 518 1068 865 52 58 108
113 126 123 40 24 112 18 154 -12z"/>
<path d="M14500 15751 c-102 -105 -180 -167 -444 -355 -111 -79 -239 -174
-286 -212 -250 -201 -464 -476 -585 -751 -81 -186 -355 -1028 -338 -1043 4 -4
49 -17 98 -28 506 -116 953 15 1326 387 188 189 293 360 373 609 103 320 114
742 30 1162 -29 146 -74 320 -83 320 -3 -1 -44 -40 -91 -89z"/>
<path d="M16325 13198 c-63 -47 -310 -164 -426 -202 -148 -49 -291 -85 -599
-151 -446 -96 -650 -163 -945 -309 -632 -314 -1154 -867 -1520 -1611 -79 -160
-178 -395 -170 -403 8 -9 159 -42 275 -61 435 -72 868 -45 1295 79 231 67 550
208 745 329 577 358 1016 1008 1275 1886 50 171 121 463 113 469 -1 2 -21 -10
-43 -26z"/>
<path d="M15964 10093 c-259 -217 -527 -396 -839 -559 -242 -127 -471 -226
-953 -415 -762 -299 -1110 -481 -1472 -772 -160 -129 -152 -110 -96 -222 80
-161 158 -269 300 -411 181 -181 358 -295 611 -393 680 -266 1298 -54 1717
589 175 268 243 437 434 1090 43 146 144 463 225 705 81 242 146 441 144 443
-1 1 -33 -24 -71 -55z"/>
</g>
</svg>
