<?xml version="1.0" standalone="no"?>
<!DOCTYPE svg PUBLIC "-//W3C//DTD SVG 20010904//EN"
 "http://www.w3.org/TR/2001/REC-SVG-20010904/DTD/svg10.dtd">
<svg version="1.0" xmlns="http://www.w3.org/2000/svg"
 width="2251.000000pt" height="2251.000000pt" viewBox="0 0 2251.000000 2251.000000"
 preserveAspectRatio="xMidYMid meet">

<g transform="translate(0.000000,2251.000000) scale(0.100000,-0.100000)"
fill="#000000" stroke="none">
<path d="M0 11255 l0 -11255 11250 0 11250 0 0 11255 0 11255 -11250 0 -11250
0 0 -11255z m11297 8534 c48 -18 83 -60 99 -119 155 -554 382 -1008 709 -1414
114 -142 222 -261 456 -503 319 -328 438 -474 527 -643 198 -373 171 -811 -83
-1325 -230 -467 -641 -948 -1236 -1448 l-56 -47 -103 77 c-56 43 -109 84 -118
90 -13 11 -12 15 14 35 706 551 1235 1239 1379 1793 98 379 36 629 -236 951
-37 44 -164 179 -280 300 -346 357 -507 544 -662 765 -152 219 -310 511 -407
751 -47 118 -49 121 -60 92 -73 -200 -226 -507 -345 -694 -168 -263 -364 -505
-640 -790 -429 -442 -510 -540 -595 -713 -27 -56 -57 -133 -66 -172 -22 -92
-21 -264 0 -380 60 -318 266 -716 562 -1085 137 -171 424 -464 619 -632 355
-307 1209 -908 1497 -1054 45 -23 49 -28 43 -52 -12 -48 -86 -232 -96 -238 -5
-3 -60 22 -121 56 -201 111 -431 261 -724 471 l-121 87 -219 -155 c-358 -253
-629 -418 -868 -528 -65 -29 -120 -56 -122 -58 -6 -5 115 -337 186 -512 177
-438 390 -817 613 -1095 105 -130 301 -322 427 -416 139 -104 458 -293 670
-397 102 -50 186 -91 187 -92 3 -1 -95 -257 -101 -263 -18 -17 -444 205 -683
356 -46 29 -87 52 -93 52 -5 0 -47 -24 -92 -53 -224 -144 -541 -307 -783 -402
-82 -33 -151 -60 -153 -61 -1 -1 2 -14 8 -30 44 -113 125 -505 157 -749 25
-194 25 -627 0 -805 -19 -132 -59 -325 -82 -389 l-13 -38 115 -123 c396 -425
642 -820 803 -1287 49 -142 111 -392 179 -724 73 -352 116 -490 220 -697 147
-293 345 -498 596 -617 130 -62 201 -82 325 -94 231 -21 443 41 585 171 86 79
119 135 171 290 104 308 252 555 457 762 48 49 86 90 84 92 -9 10 -197 35
-297 41 -425 22 -817 -147 -1107 -477 -85 -97 -212 -283 -269 -394 -22 -42
-45 -76 -53 -76 -19 0 -152 138 -178 185 l-22 41 62 102 c349 574 835 884
1427 909 216 9 445 -23 662 -93 192 -62 240 -94 254 -169 13 -73 -24 -125
-129 -185 -268 -150 -518 -494 -628 -863 -92 -310 -350 -533 -704 -609 -62
-13 -132 -19 -225 -20 -216 0 -394 44 -597 152 -53 27 -98 49 -100 47 -7 -8
-43 -187 -59 -302 -25 -166 -25 -567 -1 -750 32 -240 109 -571 161 -697 9 -21
16 -56 16 -79 0 -146 -202 -193 -268 -62 -70 137 -167 538 -204 838 -20 167
-17 628 5 780 20 131 55 301 86 409 l19 70 -50 55 c-137 149 -256 346 -365
601 -11 25 -11 25 -28 -15 -102 -242 -231 -451 -363 -587 l-46 -48 37 -147
c68 -277 90 -458 89 -753 0 -301 -37 -584 -111 -870 -37 -141 -95 -315 -116
-347 -40 -60 -131 -81 -192 -43 -71 43 -87 111 -50 210 68 178 137 493 163
740 19 186 14 580 -9 726 -22 136 -48 258 -56 267 -4 4 -39 -10 -77 -32 -413
-238 -938 -214 -1274 57 -141 113 -217 230 -285 437 -47 144 -138 332 -217
447 -112 163 -272 316 -409 392 -78 43 -104 69 -117 119 -11 41 -3 83 24 124
19 30 105 70 239 112 494 153 1000 107 1399 -126 257 -151 501 -402 679 -699
67 -110 67 -102 -7 -201 -42 -55 -117 -123 -137 -123 -4 0 -26 35 -49 78 -366
678 -921 967 -1618 841 l-63 -11 98 -102 c54 -55 120 -129 146 -163 120 -157
227 -364 302 -583 56 -163 80 -207 161 -287 47 -46 87 -74 156 -107 119 -57
213 -78 353 -78 239 0 441 76 652 246 246 198 463 598 544 1003 l22 108 -41
200 c-79 381 -134 549 -272 830 -94 192 -234 413 -364 575 -82 101 -237 278
-246 279 -3 1 -18 -25 -34 -56 -43 -89 -166 -268 -251 -365 -265 -305 -699
-551 -1123 -638 -812 -165 -1536 271 -1942 1171 -72 160 -129 322 -200 569
-132 461 -294 960 -495 1525 -203 570 -187 520 -175 564 13 48 66 97 114 106
67 13 96 -7 230 -154 242 -267 512 -499 813 -699 326 -218 668 -383 1307 -634
656 -257 941 -393 1274 -610 67 -44 122 -81 122 -82 0 -7 -90 -267 -95 -276
-4 -7 -20 0 -43 19 -50 39 -249 167 -347 223 -245 140 -476 243 -1055 473
-461 183 -590 238 -820 354 -349 175 -690 399 -932 613 -38 33 -68 58 -68 55
0 -2 36 -109 81 -238 119 -347 249 -756 349 -1100 136 -467 228 -683 399 -940
258 -387 585 -615 960 -670 118 -17 381 -6 494 20 201 47 448 153 622 269 283
188 493 456 618 792 90 240 118 414 124 765 5 288 -6 450 -48 692 -40 235
-105 487 -124 479 -7 -2 -75 -18 -151 -35 -673 -146 -1329 -80 -1979 199 -381
163 -656 350 -931 632 -444 457 -768 1085 -964 1873 -81 325 -146 727 -138
853 4 57 8 66 41 100 34 34 42 37 95 37 78 0 106 -20 145 -103 90 -196 214
-321 422 -425 174 -88 364 -145 770 -231 368 -78 531 -124 755 -211 256 -100
410 -180 635 -330 451 -300 810 -690 1131 -1226 78 -131 232 -432 248 -486 7
-20 -1 -24 -101 -56 -59 -19 -121 -37 -138 -40 l-30 -6 -76 157 c-289 593
-715 1099 -1194 1416 -219 145 -440 255 -687 341 -168 58 -297 93 -584 154
-537 116 -783 199 -993 335 -39 25 -73 46 -75 46 -2 0 8 -48 21 -107 177 -807
510 -1480 948 -1918 199 -199 385 -330 660 -465 449 -221 859 -320 1325 -320
509 0 982 120 1509 384 136 69 366 197 384 215 5 5 -61 77 -146 162 -175 175
-280 302 -413 504 -220 334 -397 705 -589 1235 -37 102 -68 186 -69 187 -1 1
-26 -4 -56 -12 -112 -30 -268 -56 -383 -64 -361 -26 -710 69 -1014 275 -289
196 -497 432 -639 727 -254 530 -260 1234 -16 1973 92 277 124 324 221 324 61
0 106 -31 138 -94 49 -97 113 -186 195 -272 96 -101 171 -160 437 -349 331
-235 515 -403 675 -615 136 -180 224 -337 306 -545 42 -105 216 -625 233 -696
6 -25 4 -27 -116 -63 -67 -21 -129 -40 -137 -42 -12 -3 -31 48 -88 227 -162
516 -251 712 -430 947 -146 191 -301 331 -617 555 -256 182 -369 273 -474 381
-46 47 -85 85 -87 84 -6 -6 -54 -190 -72 -278 -87 -411 -90 -794 -8 -1117 70
-277 201 -508 401 -708 202 -203 437 -337 695 -396 113 -26 338 -36 466 -19
224 28 468 107 726 236 216 108 411 229 737 458 l144 101 -34 27 c-217 172
-284 227 -404 332 -600 526 -1023 1090 -1188 1587 -151 451 -116 818 110 1157
86 129 176 233 463 532 344 359 495 537 647 765 201 302 365 656 473 1020 23
77 46 152 51 167 26 66 108 103 176 77z m3404 -3481 c45 -30 75 -94 143 -298
126 -382 179 -694 179 -1055 0 -369 -64 -664 -208 -950 -82 -163 -172 -290
-300 -423 -220 -229 -460 -387 -730 -477 -286 -96 -625 -103 -953 -19 -53 13
-97 24 -98 24 -1 0 -5 -12 -9 -27 -3 -16 -40 -120 -82 -233 -215 -585 -450
-1037 -720 -1385 -72 -93 -209 -248 -224 -253 -10 -4 -137 77 -196 125 l-43
34 96 107 c402 450 687 1024 1004 2027 184 583 233 733 281 865 154 422 387
751 733 1034 56 46 189 145 296 221 107 76 215 155 240 174 166 131 272 249
354 396 46 81 76 117 106 128 37 13 98 6 131 -15z m1974 -2432 c15 -10 36 -38
46 -62 19 -43 20 -49 4 -187 -52 -475 -180 -989 -357 -1427 -195 -483 -450
-882 -768 -1200 -221 -222 -423 -366 -720 -514 -492 -244 -952 -358 -1460
-359 -277 0 -535 31 -780 93 -41 11 -78 16 -82 12 -5 -5 -26 -79 -48 -165 -41
-167 -80 -380 -102 -562 -14 -117 -18 -611 -6 -680 l7 -40 -56 -34 c-31 -19
-91 -63 -134 -97 l-77 -63 -11 62 c-97 562 -3 1285 255 1977 330 879 887 1599
1565 2020 228 142 460 248 739 340 178 59 252 78 699 175 622 137 890 286
1037 580 47 94 75 131 109 146 30 13 110 4 140 -15z m-215 -3002 c22 -9 50
-29 61 -46 43 -60 39 -79 -81 -413 -215 -597 -430 -1253 -563 -1715 -89 -308
-143 -454 -246 -665 -417 -850 -1108 -1244 -1901 -1084 -303 61 -665 233 -905
429 -170 139 -347 351 -446 535 -25 47 -48 88 -51 91 -9 8 -187 -195 -290
-329 -182 -238 -353 -543 -444 -790 -21 -59 -41 -107 -44 -107 -3 0 -29 73
-58 163 -29 89 -61 181 -70 205 l-16 42 48 98 c303 612 866 1212 1480 1580
301 181 504 275 1136 527 728 290 989 417 1330 645 299 200 622 482 832 727
70 81 127 122 170 123 10 0 36 -7 58 -16z"/>
<path d="M14495 15756 c-108 -111 -185 -173 -453 -363 -245 -174 -358 -266
-476 -387 -210 -216 -350 -448 -469 -778 -44 -120 -267 -821 -267 -837 0 -11
172 -49 285 -62 119 -14 342 -6 440 15 327 73 651 285 861 566 325 435 400
1070 212 1805 -16 66 -33 123 -37 127 -3 3 -46 -35 -96 -86z"/>
<path d="M16315 13198 c-58 -43 -283 -151 -401 -192 -149 -51 -296 -88 -609
-156 -154 -33 -328 -74 -387 -90 -324 -90 -659 -246 -935 -437 -464 -320 -861
-802 -1158 -1404 -73 -148 -159 -349 -167 -388 -2 -11 18 -20 72 -33 399 -96
865 -103 1272 -19 405 84 844 279 1154 512 526 395 945 1115 1158 1989 69 285
69 270 1 218z"/>
<path d="M15952 10091 c-241 -204 -529 -396 -837 -557 -211 -110 -436 -208
-916 -399 -457 -182 -640 -260 -811 -346 -253 -127 -502 -284 -698 -442 -159
-128 -151 -106 -89 -228 81 -162 160 -271 299 -410 142 -142 256 -223 447
-319 127 -63 306 -127 433 -155 119 -26 387 -31 507 -10 517 93 939 513 1197
1193 25 67 80 238 120 380 91 314 236 773 351 1106 47 137 84 250 82 252 -2 2
-40 -27 -85 -65z"/>
</g>
</svg>
