<?xml version="1.0" standalone="no"?>
<!DOCTYPE svg PUBLIC "-//W3C//DTD SVG 20010904//EN"
 "http://www.w3.org/TR/2001/REC-SVG-20010904/DTD/svg10.dtd">
<svg version="1.0" xmlns="http://www.w3.org/2000/svg"
 width="1379.000000pt" height="2251.000000pt" viewBox="0 0 1379.000000 2251.000000"
 preserveAspectRatio="xMidYMid meet">

<g transform="translate(0.000000,2251.000000) scale(0.100000,-0.100000)"
fill="#000000" stroke="none">
<path d="M2015 6883 c-1024 -61 -1686 -577 -1898 -1478 -65 -275 -61 -159 -64
-1943 l-4 -1623 30 -29 c39 -39 97 -41 138 -6 l28 24 3 891 2 891 1940 0 1940
0 0 -888 0 -888 28 -27 c22 -22 38 -27 76 -27 56 0 91 28 101 81 12 65 -1
3147 -13 3239 -24 173 -65 358 -108 489 -229 696 -769 1136 -1549 1261 -199
32 -454 45 -650 33z m540 -207 c405 -60 718 -193 980 -416 250 -213 440 -542
528 -915 55 -231 59 -293 64 -942 l5 -603 -1942 0 -1941 0 4 623 c4 662 6 693
59 922 75 325 247 644 460 852 222 217 532 376 873 448 61 13 153 28 205 34
52 6 111 13 130 15 76 9 480 -4 575 -18z"/>
<path d="M5315 6781 c-11 -5 -29 -19 -40 -31 -20 -22 -20 -38 -23 -2439 -1
-1329 0 -2431 3 -2450 14 -79 118 -111 177 -54 l28 27 0 1208 c0 664 2 1208 6
1208 3 0 655 -556 1450 -1235 l1445 -1235 45 0 c37 0 51 6 75 29 33 34 39 83
13 119 -8 12 -639 554 -1400 1204 -762 650 -1381 1184 -1377 1188 4 4 600 513
1323 1130 723 617 1332 1139 1353 1158 31 30 37 43 37 78 0 72 -64 121 -127
97 -12 -4 -652 -548 -1423 -1208 -771 -660 -1405 -1201 -1411 -1203 -5 -2 -9
441 -9 1173 0 788 -3 1183 -10 1196 -21 39 -88 59 -135 40z"/>
<path d="M9454 6781 c-12 -5 -29 -20 -38 -33 -15 -20 -16 -238 -16 -2469 l0
-2446 26 -27 c38 -37 110 -37 148 0 l26 27 0 1198 0 1199 1970 0 1970 0 0
-1198 0 -1198 28 -27 c59 -57 163 -25 177 54 3 19 4 1122 3 2451 l-3 2416 -24
26 c-30 32 -81 43 -122 26 -63 -27 -59 57 -59 -1207 l0 -1153 -1970 0 -1970 0
0 1154 0 1155 -23 26 c-24 29 -86 42 -123 26z"/>
<path d="M1740 1184 c-209 -45 -380 -208 -436 -415 -22 -84 -23 -243 -1 -326
55 -210 227 -372 442 -418 345 -73 666 112 740 426 19 82 19 226 0 308 -51
214 -218 375 -442 425 -87 19 -215 19 -303 0z m324 -123 c196 -69 316 -242
316 -456 0 -268 -184 -463 -455 -482 -143 -10 -272 35 -372 130 -99 94 -143
201 -143 352 0 54 6 113 16 146 47 159 176 282 342 324 77 20 218 13 296 -14z"/>
<path d="M4836 1184 c-120 -29 -227 -108 -276 -204 -52 -102 -55 -129 -55
-538 0 -368 1 -384 19 -398 25 -18 57 -18 82 0 18 14 19 33 24 408 l5 393 33
67 c38 78 84 120 161 149 168 62 368 16 448 -105 60 -89 63 -111 63 -518 0
-355 1 -369 20 -388 23 -23 58 -26 86 -6 18 14 19 30 19 398 0 343 -2 389 -18
443 -51 165 -152 260 -319 300 -78 18 -214 18 -292 -1z"/>
<path d="M7904 1185 c-122 -26 -234 -106 -287 -203 -53 -98 -57 -133 -57 -549
0 -368 1 -383 19 -393 29 -15 56 -12 74 8 14 15 17 48 19 193 l3 174 373 3
372 2 0 -175 c0 -162 2 -177 20 -195 24 -24 63 -26 84 -4 14 13 16 63 16 392
0 291 -3 389 -14 429 -58 217 -228 334 -481 332 -44 0 -107 -7 -141 -14z m306
-124 c101 -38 166 -112 196 -223 8 -32 14 -103 14 -181 l0 -127 -372 2 -373 3
-3 90 c-8 262 73 402 263 452 70 18 206 10 275 -16z"/>
<path d="M11551 1184 c-168 -36 -319 -151 -392 -298 -40 -81 -68 -197 -68
-281 0 -84 28 -200 68 -281 142 -286 522 -398 840 -247 139 66 259 218 296
374 19 82 19 226 0 308 -37 155 -155 304 -295 373 -131 64 -304 84 -449 52z
m323 -123 c154 -54 265 -176 300 -331 72 -317 -122 -585 -439 -607 -294 -20
-516 187 -516 482 0 235 136 414 357 470 79 20 220 13 298 -14z"/>
<path d="M13175 1190 c-183 -37 -311 -165 -344 -344 -7 -36 -11 -205 -11 -422
l0 -363 22 -15 c30 -21 61 -20 81 2 14 15 16 67 19 397 3 372 4 381 27 439 32
79 86 137 164 172 54 25 74 28 162 28 136 1 191 -19 265 -93 94 -96 94 -94 98
-541 3 -421 3 -420 62 -420 60 0 60 1 60 402 0 207 -4 389 -10 419 -33 172
-156 298 -327 334 -73 16 -203 18 -268 5z"/>
<path d="M10 625 c0 -542 0 -555 20 -575 25 -25 62 -26 83 -2 14 16 17 53 19
263 l3 244 284 3 c189 1 289 6 298 13 17 15 17 73 0 88 -9 7 -109 12 -298 13
l-284 3 0 195 0 195 334 3 c294 2 337 4 353 19 24 21 23 48 -2 73 -19 19 -33
20 -415 20 l-395 0 0 -555z"/>
<path d="M3032 1164 l-22 -15 0 -362 c0 -393 6 -454 55 -554 68 -138 230 -223
425 -223 230 0 383 99 451 291 22 62 23 78 27 451 4 381 3 387 -17 407 -26 26
-62 27 -84 3 -15 -17 -17 -57 -17 -370 0 -222 -4 -371 -11 -404 -25 -114 -81
-187 -184 -235 -54 -25 -71 -28 -165 -28 -95 0 -111 3 -168 29 -76 35 -132 95
-164 175 -22 54 -23 69 -26 436 -3 330 -5 382 -19 397 -20 22 -51 23 -81 2z"/>
<path d="M6051 1161 c-21 -21 -21 -24 -21 -556 0 -531 0 -535 21 -556 21 -21
27 -21 278 -17 236 5 262 7 338 30 206 62 326 195 369 408 28 141 9 303 -52
429 -33 67 -129 165 -199 203 -110 59 -177 70 -456 75 -251 5 -257 5 -278 -16z
m556 -114 c184 -53 288 -173 314 -363 31 -218 -58 -409 -227 -489 -86 -41
-146 -49 -349 -50 l-190 0 -3 450 c-1 248 0 456 3 464 7 19 377 9 452 -12z"/>
<path d="M9020 1160 c-25 -25 -26 -52 -2 -73 16 -15 45 -17 195 -17 l177 0 0
-500 c0 -487 1 -501 20 -520 23 -23 58 -26 86 -6 18 14 19 33 22 520 l3 506
179 0 c178 0 180 0 195 24 18 27 7 69 -20 80 -9 3 -201 6 -426 6 -396 0 -410
-1 -429 -20z"/>
<path d="M10450 1160 c-20 -20 -20 -33 -20 -555 0 -522 0 -535 20 -555 22 -22
51 -26 81 -10 18 10 19 27 19 565 0 538 -1 555 -19 565 -30 16 -59 12 -81 -10z"/>
</g>
</svg>
